<svg xmlns="http://www.w3.org/2000/svg" xmlns:xlink="http://www.w3.org/1999/xlink" aria-hidden="true">
	<symbol id="adventures-copy" viewBox="0 0 20 20"><path fill-rule="evenodd" clip-rule="evenodd" d="M0 16V0H16V1.79999H1.7998V16H0ZM5.8 5.8H18.2V18.2H5.8V5.8ZM4 4H5.8H18.2H20V5.8V18.2V20H18.2H5.8H4V18.2V5.8V4Z" fill="currentColor"/></symbol>
  <symbol id="adventures-telegram" viewBox="0 0 20 20"><path d="M2.44304 9.10203L17.2237 3.40312C17.9097 3.15529 18.5088 3.57048 18.2865 4.6078L18.2878 4.60652L15.7711 16.463C15.5846 17.3036 15.0851 17.508 14.3863 17.1119L10.5539 14.2874L8.70532 16.0682C8.50092 16.2726 8.32846 16.4451 7.93244 16.4451L8.20454 12.5449L15.3074 6.12802C15.6166 5.85591 15.2384 5.70262 14.8309 5.97344L6.05324 11.4999L2.2693 10.3195C1.44787 10.0589 1.42998 9.49805 2.44304 9.10203Z" fill="currentColor"/></symbol>
  <symbol id="adventures-list" viewBox="0 0 24 24"><path d="M19.9377 17.0454C19.9377 17.388 19.6602 17.6667 19.319 17.6667H9.30707C8.9659 17.6667 8.68835 17.388 8.68835 17.0454V16.2509C8.68835 15.9083 8.9659 15.6296 9.30707 15.6296H19.3181C19.6593 15.6296 19.9368 15.9083 19.9368 16.2509V17.0454H19.9377Z" fill="currentColor"/><path d="M7.02859 16.9259C7.02859 17.3343 6.69756 17.6667 6.29092 17.6667H5.73767C5.33103 17.6667 5 17.3343 5 16.9259V16.3704C5 15.962 5.33103 15.6296 5.73767 15.6296H6.29092C6.69756 15.6296 7.02859 15.962 7.02859 16.3704V16.9259Z" fill="currentColor"/><path d="M19.9377 12.2306C19.9377 12.5732 19.6602 12.8519 19.319 12.8519H9.30707C8.9659 12.8519 8.68835 12.5732 8.68835 12.2306V11.4361C8.68835 11.0935 8.9659 10.8148 9.30707 10.8148H19.3181C19.6593 10.8148 19.9368 11.0935 19.9368 11.4361V12.2306H19.9377Z" fill="currentColor"/><path d="M19.9377 7.41575C19.9377 7.75834 19.6602 8.03705 19.319 8.03705H9.30707C8.9659 8.03705 8.68835 7.75834 8.68835 7.41575V6.6213C8.68835 6.27871 8.9659 6 9.30707 6H19.3181C19.6593 6 19.9368 6.27871 19.9368 6.6213V7.41575H19.9377Z" fill="currentColor"/><path d="M7.02859 12.1111C7.02859 12.5195 6.69756 12.8519 6.29092 12.8519H5.73767C5.33103 12.8519 5 12.5195 5 12.1111V11.5556C5 11.1472 5.33103 10.8148 5.73767 10.8148H6.29092C6.69756 10.8148 7.02859 11.1472 7.02859 11.5556V12.1111Z" fill="currentColor"/><path d="M7.02859 7.2963C7.02859 7.70464 6.69756 8.03705 6.29092 8.03705H5.73767C5.33103 8.03705 5 7.70464 5 7.2963V6.74074C5 6.33241 5.33103 6 5.73767 6H6.29092C6.69756 6 7.02859 6.33241 7.02859 6.74074V7.2963Z" fill="currentColor"/></symbol>
  <symbol id="adventures-star-discount" viewBox="0 0 28 28"><path d="M14 0L16.1304 3.28983L19.3576 1.06569L20.0668 4.92035L23.8995 4.1005L23.0796 7.93317L26.9343 8.64243L24.7102 11.8696L28 14L24.7102 16.1304L26.9343 19.3576L23.0796 20.0668L23.8995 23.8995L20.0668 23.0796L19.3576 26.9343L16.1304 24.7102L14 28L11.8696 24.7102L8.64243 26.9343L7.93317 23.0796L4.1005 23.8995L4.92035 20.0668L1.06569 19.3576L3.28983 16.1304L0 14L3.28983 11.8696L1.06569 8.64243L4.92035 7.93317L4.1005 4.1005L7.93317 4.92035L8.64243 1.06569L11.8696 3.28983L14 0Z" fill="#FF4169"/><path d="M18.2159 9.36386L16.5091 9.33008L10.4968 18.8431L12.1732 18.8763L18.2159 9.36386ZM14.7322 16.684C14.7069 17.9632 15.7841 19.0028 17.2014 19.0308C18.6187 19.0588 19.7819 18.0636 19.8072 16.7844C19.8325 15.5053 18.7251 14.4514 17.3078 14.4233C15.8905 14.3953 14.7575 15.4049 14.7322 16.684ZM16.0883 16.7246C16.1008 16.0919 16.5994 15.5514 17.3004 15.5652C18.0167 15.5794 18.4783 16.1389 18.4658 16.7717C18.453 17.4181 17.9702 17.9315 17.2539 17.9173C16.5529 17.9034 16.0755 17.3711 16.0883 16.7246ZM9.01336 11.3696C8.98805 12.6488 10.05 13.688 11.4673 13.7161C12.8846 13.7441 14.063 12.7492 14.0883 11.47C14.1136 10.1908 12.991 9.13664 11.5737 9.10859C10.1564 9.08055 9.03867 10.0904 9.01336 11.3696ZM10.3542 11.4099C10.367 10.7634 10.8498 10.2501 11.5661 10.2643C12.2671 10.2782 12.7445 10.8105 12.7317 11.4569C12.7192 12.0896 12.2206 12.6302 11.5195 12.6163C10.8033 12.6021 10.3417 12.0426 10.3542 11.4099Z" fill="white"/></symbol>
  <symbol id="adventures-message" viewBox="0 0 32 32"><path fill-rule="evenodd" clip-rule="evenodd" d="M22.6495 5.54853L4.96009 9.63244L15.7936 14.0814L22.6495 5.54853ZM4.58722 12.1281L7.29838 23.8714L27.5653 19.1924L24.7537 7.01403L16.661 17.0864L4.58722 12.1281Z" fill="currentColor"/></symbol>
  <symbol id="adventures-phone" viewBox="0 0 32 32"><path fill-rule="evenodd" clip-rule="evenodd" d="M11.8867 20.5855C4.37378 12.6289 6.0148 5.45796 6.0148 5.45796L11.0005 5.36252L12.7754 12.1762L11.5459 14.695L16.9955 20.3242L19.3687 19.0427L25.6271 20.8856L25.3642 26.7112C25.3646 26.7114 19.3996 28.5423 11.8867 20.5855Z" fill="currentColor"/></symbol>
  <symbol id="adventures-bank-card" viewBox="0 0 32 32"><path fill-rule="evenodd" clip-rule="evenodd" d="M2.32645 11.8404C2.1835 11.307 2.50009 10.7586 3.03355 10.6157L24.6254 4.83018C25.1589 4.68724 25.7072 5.00382 25.8501 5.53729L26.3792 7.51184L2.85553 13.815L2.32645 11.8404ZM3.74291 17.1267L6.01091 25.591C6.15385 26.1245 6.70219 26.4411 7.23565 26.2982L28.8275 20.5126C29.361 20.3697 29.6775 19.8214 29.5346 19.2879L27.2666 10.8236L3.74291 17.1267ZM22.4994 16.2115L26.42 15.161L27.2079 18.1014L22.3071 19.4146L22.4994 16.2115Z" fill="currentColor"/></symbol>
</svg>
